<svg width="4116" height="963" xmlns="http://www.w3.org/2000/svg" xmlns:xlink="http://www.w3.org/1999/xlink" xml:space="preserve" overflow="hidden"><defs><linearGradient x1="2135.53" y1="1509.75" x2="2135.53" y2="2422.75" gradientUnits="userSpaceOnUse" spreadMethod="reflect" id="stroke0"><stop offset="0" stop-color="#FF8C00" stop-opacity="1"/><stop offset="0.51" stop-color="#FF0000" stop-opacity="1"/><stop offset="1" stop-color="#D273FE" stop-opacity="1"/></linearGradient><linearGradient x1="2135.53" y1="1509.75" x2="2135.53" y2="2422.75" gradientUnits="userSpaceOnUse" spreadMethod="reflect" id="fill1"><stop offset="0" stop-color="#FF9300" stop-opacity="1"/><stop offset="0.52" stop-color="#FF0000" stop-opacity="0.701961"/><stop offset="0.99" stop-color="#FF40FF" stop-opacity="1"/><stop offset="1" stop-color="#FF40FF" stop-opacity="1"/></linearGradient><linearGradient x1="2135.53" y1="1509.75" x2="2135.53" y2="2422.75" gradientUnits="userSpaceOnUse" spreadMethod="reflect" id="stroke2"><stop offset="0" stop-color="#FF8C00" stop-opacity="1"/><stop offset="0.51" stop-color="#FF0000" stop-opacity="1"/><stop offset="1" stop-color="#D273FE" stop-opacity="1"/></linearGradient><linearGradient x1="2135.53" y1="1509.75" x2="2135.53" y2="2422.75" gradientUnits="userSpaceOnUse" spreadMethod="reflect" id="fill3"><stop offset="0" stop-color="#FF9300" stop-opacity="1"/><stop offset="0.52" stop-color="#FF0000" stop-opacity="0.701961"/><stop offset="0.99" stop-color="#FF40FF" stop-opacity="1"/><stop offset="1" stop-color="#FF40FF" stop-opacity="1"/></linearGradient><linearGradient x1="3263.5" y1="1769" x2="3263.5" y2="2220" gradientUnits="userSpaceOnUse" spreadMethod="reflect" id="fill4"><stop offset="0" stop-color="#FF9300" stop-opacity="1"/><stop offset="0.52" stop-color="#FF0000" stop-opacity="1"/><stop offset="1" stop-color="#FF40FF" stop-opacity="1"/></linearGradient><linearGradient x1="3263.5" y1="1922" x2="3263.5" y2="1711" gradientUnits="userSpaceOnUse" spreadMethod="reflect" id="fill5"><stop offset="0" stop-color="#FF0000" stop-opacity="1"/><stop offset="0.00684932" stop-color="#FF0100" stop-opacity="1"/><stop offset="0.0136986" stop-color="#FF0300" stop-opacity="1"/><stop offset="0.0205479" stop-color="#FF0500" stop-opacity="1"/><stop offset="0.0273973" stop-color="#FF0700" stop-opacity="1"/><stop offset="0.0342466" stop-color="#FF0900" stop-opacity="1"/><stop offset="0.0410959" stop-color="#FF0B00" stop-opacity="1"/><stop offset="0.0479452" stop-color="#FF0C00" stop-opacity="1"/><stop offset="0.0547945" stop-color="#FF0E00" stop-opacity="1"/><stop offset="0.0616438" stop-color="#FF1000" stop-opacity="1"/><stop offset="0.0684932" stop-color="#FF1200" stop-opacity="1"/><stop offset="0.0753425" stop-color="#FF1400" stop-opacity="1"/><stop offset="0.0821918" stop-color="#FF1500" stop-opacity="1"/><stop offset="0.0890411" stop-color="#FF1700" stop-opacity="1"/><stop offset="0.0958904" stop-color="#FF1900" stop-opacity="1"/><stop offset="0.10274" stop-color="#FF1B00" stop-opacity="1"/><stop offset="0.109589" stop-color="#FF1C00" stop-opacity="1"/><stop offset="0.116438" stop-color="#FF1E00" stop-opacity="1"/><stop offset="0.123288" stop-color="#FF2000" stop-opacity="1"/><stop offset="0.130137" stop-color="#FF2100" stop-opacity="1"/><stop offset="0.136986" stop-color="#FF2300" stop-opacity="1"/><stop offset="0.143836" stop-color="#FF2500" stop-opacity="1"/><stop offset="0.150685" stop-color="#FF2600" stop-opacity="1"/><stop offset="0.157534" stop-color="#FF2800" stop-opacity="1"/><stop offset="0.164384" stop-color="#FF2A00" stop-opacity="1"/><stop offset="0.171233" stop-color="#FF2B00" stop-opacity="1"/><stop offset="0.178082" stop-color="#FF2D00" stop-opacity="1"/><stop offset="0.184932" stop-color="#FF2E00" stop-opacity="1"/><stop offset="0.191781" stop-color="#FF3000" stop-opacity="1"/><stop offset="0.19863" stop-color="#FF3100" stop-opacity="1"/><stop offset="0.205479" stop-color="#FF3300" stop-opacity="1"/><stop offset="0.212329" stop-color="#FF3500" stop-opacity="1"/><stop offset="0.219178" stop-color="#FF3600" stop-opacity="1"/><stop offset="0.226027" stop-color="#FF3800" stop-opacity="1"/><stop offset="0.232877" stop-color="#FF3900" stop-opacity="1"/><stop offset="0.239726" stop-color="#FF3B00" stop-opacity="1"/><stop offset="0.246575" stop-color="#FF3C00" stop-opacity="1"/><stop offset="0.253425" stop-color="#FF3E00" stop-opacity="1"/><stop offset="0.260274" stop-color="#FF3F00" stop-opacity="1"/><stop offset="0.267123" stop-color="#FF4000" stop-opacity="1"/><stop offset="0.273973" stop-color="#FF4200" stop-opacity="1"/><stop offset="0.280822" stop-color="#FF4300" stop-opacity="1"/><stop offset="0.287671" stop-color="#FF4500" stop-opacity="1"/><stop offset="0.294521" stop-color="#FF4600" stop-opacity="1"/><stop offset="0.30137" stop-color="#FF4700" stop-opacity="1"/><stop offset="0.308219" stop-color="#FF4900" stop-opacity="1"/><stop offset="0.315068" stop-color="#FF4A00" stop-opacity="1"/><stop offset="0.321918" stop-color="#FF4C00" stop-opacity="1"/><stop offset="0.328767" stop-color="#FF4D00" stop-opacity="1"/><stop offset="0.335616" stop-color="#FF4E00" stop-opacity="1"/><stop offset="0.342466" stop-color="#FF5000" stop-opacity="1"/><stop offset="0.349315" stop-color="#FF5100" stop-opacity="1"/><stop offset="0.356164" stop-color="#FF5200" stop-opacity="1"/><stop offset="0.363014" stop-color="#FF5300" stop-opacity="1"/><stop offset="0.369863" stop-color="#FF5500" stop-opacity="1"/><stop offset="0.376712" stop-color="#FF5600" stop-opacity="1"/><stop offset="0.383562" stop-color="#FF5700" stop-opacity="1"/><stop offset="0.390411" stop-color="#FF5800" stop-opacity="1"/><stop offset="0.39726" stop-color="#FF5A00" stop-opacity="1"/><stop offset="0.40411" stop-color="#FF5B00" stop-opacity="1"/><stop offset="0.410959" stop-color="#FF5C00" stop-opacity="1"/><stop offset="0.417808" stop-color="#FF5D00" stop-opacity="1"/><stop offset="0.424658" stop-color="#FF5E00" stop-opacity="1"/><stop offset="0.431507" stop-color="#FF6000" stop-opacity="1"/><stop offset="0.438356" stop-color="#FF6100" stop-opacity="1"/><stop offset="0.445205" stop-color="#FF6200" stop-opacity="1"/><stop offset="0.452055" stop-color="#FF6300" stop-opacity="1"/><stop offset="0.458904" stop-color="#FF6400" stop-opacity="1"/><stop offset="0.465753" stop-color="#FF6500" stop-opacity="1"/><stop offset="0.472603" stop-color="#FF6600" stop-opacity="1"/><stop offset="0.479452" stop-color="#FF6700" stop-opacity="1"/><stop offset="0.486301" stop-color="#FF6800" stop-opacity="1"/><stop offset="0.493151" stop-color="#FF6900" stop-opacity="1"/><stop offset="0.5" stop-color="#FF6A00" stop-opacity="1"/><stop offset="0.506849" stop-color="#FF6B00" stop-opacity="1"/><stop offset="0.513699" stop-color="#FF6C00" stop-opacity="1"/><stop offset="0.520548" stop-color="#FF6D00" stop-opacity="1"/><stop offset="0.527397" stop-color="#FF6E00" stop-opacity="1"/><stop offset="0.534247" stop-color="#FF6F00" stop-opacity="1"/><stop offset="0.541096" stop-color="#FF7000" stop-opacity="1"/><stop offset="0.547945" stop-color="#FF7100" stop-opacity="1"/><stop offset="0.554795" stop-color="#FF7200" stop-opacity="1"/><stop offset="0.561644" stop-color="#FF7300" stop-opacity="1"/><stop offset="0.568493" stop-color="#FF7400" stop-opacity="1"/><stop offset="0.575342" stop-color="#FF7500" stop-opacity="1"/><stop offset="0.582192" stop-color="#FF7600" stop-opacity="1"/><stop offset="0.589041" stop-color="#FF7700" stop-opacity="1"/><stop offset="0.59589" stop-color="#FF7800" stop-opacity="1"/><stop offset="0.60274" stop-color="#FF7800" stop-opacity="1"/><stop offset="0.609589" stop-color="#FF7900" stop-opacity="1"/><stop offset="0.616438" stop-color="#FF7A00" stop-opacity="1"/><stop offset="0.623288" stop-color="#FF7B00" stop-opacity="1"/><stop offset="0.630137" stop-color="#FF7C00" stop-opacity="1"/><stop offset="0.636986" stop-color="#FF7D00" stop-opacity="1"/><stop offset="0.643836" stop-color="#FF7D00" stop-opacity="1"/><stop offset="0.650685" stop-color="#FF7E00" stop-opacity="1"/><stop offset="0.657534" stop-color="#FF7F00" stop-opacity="1"/><stop offset="0.664384" stop-color="#FF8000" stop-opacity="1"/><stop offset="0.671233" stop-color="#FF8000" stop-opacity="1"/><stop offset="0.678082" stop-color="#FF8100" stop-opacity="1"/><stop offset="0.684932" stop-color="#FF8200" stop-opacity="1"/><stop offset="0.691781" stop-color="#FF8200" stop-opacity="1"/><stop offset="0.69863" stop-color="#FF8300" stop-opacity="1"/><stop offset="0.705479" stop-color="#FF8400" stop-opacity="1"/><stop offset="0.712329" stop-color="#FF8400" stop-opacity="1"/><stop offset="0.719178" stop-color="#FF8500" stop-opacity="1"/><stop offset="0.726027" stop-color="#FF8600" stop-opacity="1"/><stop offset="0.732877" stop-color="#FF8600" stop-opacity="1"/><stop offset="0.739726" stop-color="#FF8700" stop-opacity="1"/><stop offset="0.746575" stop-color="#FF8700" stop-opacity="1"/><stop offset="0.753425" stop-color="#FF8800" stop-opacity="1"/><stop offset="0.760274" stop-color="#FF8800" stop-opacity="1"/><stop offset="0.767123" stop-color="#FF8900" stop-opacity="1"/><stop offset="0.773973" stop-color="#FF8900" stop-opacity="1"/><stop offset="0.780822" stop-color="#FF8A00" stop-opacity="1"/><stop offset="0.787671" stop-color="#FF8A00" stop-opacity="1"/><stop offset="0.794521" stop-color="#FF8B00" stop-opacity="1"/><stop offset="0.80137" stop-color="#FF8B00" stop-opacity="1"/><stop offset="0.808219" stop-color="#FF8C00" stop-opacity="1"/><stop offset="0.815068" stop-color="#FF8C00" stop-opacity="1"/><stop offset="0.821918" stop-color="#FF8D00" stop-opacity="1"/><stop offset="0.828767" stop-color="#FF8D00" stop-opacity="1"/><stop offset="0.835616" stop-color="#FF8E00" stop-opacity="1"/><stop offset="0.842466" stop-color="#FF8E00" stop-opacity="1"/><stop offset="0.849315" stop-color="#FF8E00" stop-opacity="1"/><stop offset="0.856164" stop-color="#FF8F00" stop-opacity="1"/><stop offset="0.863014" stop-color="#FF8F00" stop-opacity="1"/><stop offset="0.869863" stop-color="#FF8F00" stop-opacity="1"/><stop offset="0.876712" stop-color="#FF9000" stop-opacity="1"/><stop offset="0.883562" stop-color="#FF9000" stop-opacity="1"/><stop offset="0.890411" stop-color="#FF9000" stop-opacity="1"/><stop offset="0.89726" stop-color="#FF9000" stop-opacity="1"/><stop offset="0.90411" stop-color="#FF9100" stop-opacity="1"/><stop offset="0.910959" stop-color="#FF9100" stop-opacity="1"/><stop offset="0.917808" stop-color="#FF9100" stop-opacity="1"/><stop offset="0.924658" stop-color="#FF9100" stop-opacity="1"/><stop offset="0.931507" stop-color="#FF9200" stop-opacity="1"/><stop offset="0.938356" stop-color="#FF9200" stop-opacity="1"/><stop offset="0.945205" stop-color="#FF9200" stop-opacity="1"/><stop offset="0.952055" stop-color="#FF9200" stop-opacity="1"/><stop offset="0.958904" stop-color="#FF9200" stop-opacity="1"/><stop offset="0.965753" stop-color="#FF9200" stop-opacity="1"/><stop offset="0.972603" stop-color="#FF9200" stop-opacity="1"/><stop offset="0.979452" stop-color="#FF9200" stop-opacity="1"/><stop offset="0.986301" stop-color="#FF9200" stop-opacity="1"/><stop offset="0.993151" stop-color="#FF9200" stop-opacity="1"/><stop offset="1" stop-color="#FF9300" stop-opacity="1"/></linearGradient></defs><g transform="translate(-132 -1489)"><g><path d="M794.416 1798.19 794.416 1934.18 878.393 1934.18C894.743 1934.18 908.801 1931.58 920.568 1926.38 932.335 1921.18 941.438 1913.38 947.879 1902.97 954.32 1892.57 957.54 1879.81 957.54 1864.7 957.54 1842.65 950.852 1826.05 937.475 1814.91 924.098 1803.76 906.386 1798.19 884.339 1798.19ZM333.791 1795.96 333.791 1949.79 415.91 1949.79C440.187 1949.79 459.819 1943.35 474.806 1930.47 489.793 1917.59 497.287 1898.51 497.287 1873.25 497.287 1846.99 489.608 1827.54 474.249 1814.91 458.89 1802.27 439.444 1795.96 415.91 1795.96ZM2816.69 1711.61 2921.11 1711.61 2921.11 2211.76 2816.69 2211.76ZM2138.36 1711.61 2242.77 1711.61 2242.77 2211.76 2138.36 2211.76ZM1172.4 1711.61 1507.94 1711.61 1507.94 1798.19 1276.81 1798.19 1276.81 1914.49 1486.38 1914.49 1486.38 1998.1 1276.81 1998.1 1276.81 2125.18 1507.94 2125.18 1507.94 2211.76 1172.4 2211.76ZM690.001 1711.61 895.858 1711.61C928.061 1711.61 956.797 1716.13 982.065 1725.17 1007.33 1734.21 1027.34 1748.83 1042.08 1769.02 1056.81 1789.21 1064.18 1816.02 1064.18 1849.46 1064.18 1881.17 1055.7 1908.05 1038.73 1930.1 1021.76 1952.14 996.061 1967.87 961.628 1977.29 982.684 1980.51 999.529 1986.89 1012.16 1996.42 1024.8 2005.96 1035.02 2018.78 1042.82 2034.88 1050.62 2050.99 1057.74 2070.8 1064.18 2094.34L1097.26 2211.76 988.01 2211.76 964.6 2115.15C959.646 2093.35 953.948 2075.51 947.508 2061.64 941.067 2047.77 932.335 2037.42 921.311 2030.61 910.288 2023.8 895.115 2020.39 875.792 2020.39L794.416 2020.39 794.416 2211.76 690.001 2211.76ZM229.376 1711.61 425.572 1711.61C458.519 1711.61 488.555 1717.43 515.68 1729.07 542.806 1740.71 564.419 1758.43 580.521 1782.21 596.623 1805.99 604.674 1836.33 604.674 1873.25 604.674 1909.66 596.623 1939.76 580.521 1963.54 564.419 1987.32 542.806 2004.97 515.68 2016.49 488.555 2028.01 458.519 2033.77 425.572 2033.77L333.791 2033.77 333.791 2211.76 229.376 2211.76ZM2526.03 1705.29C2560.22 1705.29 2591.62 1710.49 2620.23 1720.9 2648.84 1731.3 2671.69 1747.16 2688.79 1768.46 2705.88 1789.76 2714.43 1816.89 2714.43 1849.84L2607.41 1849.84C2607.66 1828.53 2599.73 1812.62 2583.63 1802.09 2567.53 1791.56 2548.21 1786.3 2525.66 1786.3 2503.37 1786.3 2484.91 1790.44 2470.3 1798.74 2455.68 1807.04 2448.37 1819.86 2448.37 1837.2 2448.37 1847.11 2451.47 1855.84 2457.66 1863.4 2463.86 1870.95 2475.31 1878.32 2492.03 1885.51 2508.76 1892.69 2532.97 1900.87 2564.68 1910.03 2602.58 1921.18 2633.67 1932.88 2657.95 1945.15 2682.22 1957.41 2700.24 1973.26 2712.01 1992.71 2723.78 2012.16 2729.66 2037.73 2729.66 2069.44 2729.66 2104.86 2720.99 2133.48 2703.65 2155.28 2686.31 2177.08 2662.71 2193.05 2632.86 2203.21 2603.01 2213.37 2569.26 2218.45 2531.61 2218.45 2493.71 2218.45 2459.58 2213.06 2429.24 2202.28 2398.89 2191.51 2374.8 2174.35 2356.96 2150.82 2339.13 2127.28 2330.21 2096.57 2330.21 2058.66L2437.23 2058.66C2437.72 2077.99 2442.18 2093.16 2450.6 2104.18 2459.03 2115.21 2470.36 2123.07 2484.6 2127.78 2498.85 2132.49 2515.13 2134.84 2533.47 2134.84 2551.05 2134.84 2566.54 2132.73 2579.91 2128.52 2593.29 2124.31 2603.76 2117.81 2611.31 2109.01 2618.87 2100.22 2622.65 2089.01 2622.65 2075.39 2622.65 2062.26 2619.43 2051.42 2612.98 2042.87 2606.54 2034.33 2595.15 2026.52 2578.8 2019.46 2562.45 2012.4 2539.53 2004.79 2510.06 1996.61 2475.62 1986.7 2445.83 1975.8 2420.69 1963.91 2395.55 1952.02 2376.1 1936.66 2362.35 1917.84 2348.6 1899.01 2341.73 1874.48 2341.73 1844.26 2341.73 1811.81 2349.59 1785.37 2365.32 1764.93 2381.06 1744.49 2402.79 1729.44 2430.54 1719.78 2458.28 1710.12 2490.11 1705.29 2526.03 1705.29ZM1821.68 1704.92C1860.82 1704.92 1896.86 1711.67 1929.81 1725.17 1962.76 1738.67 1989.51 1758.61 2010.07 1784.99 2030.63 1811.38 2041.91 1843.89 2043.89 1882.53L1936.87 1882.53C1934.15 1862.22 1927.52 1845.38 1916.99 1832 1906.46 1818.62 1893.03 1808.59 1876.68 1801.9 1860.33 1795.21 1841.99 1791.87 1821.68 1791.87 1788.98 1791.87 1762.66 1799.8 1742.72 1815.65 1722.78 1831.5 1708.29 1852.25 1699.24 1877.89 1690.2 1903.53 1685.68 1931.58 1685.68 1962.05 1685.68 1992.28 1690.2 2020.27 1699.24 2046.03 1708.29 2071.79 1722.78 2092.48 1742.72 2108.09 1762.66 2123.69 1788.98 2131.49 1821.68 2131.49 1856.11 2131.49 1883.3 2122.64 1903.24 2104.93 1923.19 2087.21 1934.64 2062.01 1937.61 2029.31L2044.63 2029.31C2041.66 2070.18 2030.88 2104.68 2012.3 2132.8 1993.72 2160.91 1968.33 2182.22 1936.13 2196.71 1903.92 2211.2 1865.78 2218.45 1821.68 2218.45 1771.15 2218.45 1727.67 2207.85 1691.26 2186.67 1654.84 2165.49 1626.85 2135.77 1607.28 2097.49 1587.71 2059.22 1577.92 2014.07 1577.92 1962.05 1577.92 1910.03 1587.71 1864.76 1607.28 1826.24 1626.85 1787.72 1654.84 1757.87 1691.26 1736.69 1727.67 1715.51 1771.15 1704.92 1821.68 1704.92Z" stroke="url(#stroke0)" stroke-width="9" stroke-linecap="butt" stroke-linejoin="round" stroke-miterlimit="10" fill="url(#fill1)" fill-rule="evenodd"/><text fill="#000000" fill-opacity="0" font-family="Arial,Arial_MSFontService,sans-serif" font-size="513.526" direction="ltr" writing-mode="lr-tb" x="229.376" y="2154.25">PRECISI   </text><path d="M3611.33 1711.61 3713.51 1711.61 3943.52 2048.63 3943.52 1711.61 4041.99 1711.61 4041.99 2211.76 3939.43 2211.76 3709.05 1872.5 3709.05 2211.76 3611.33 2211.76Z" stroke="url(#stroke2)" stroke-width="9" stroke-linecap="butt" stroke-linejoin="round" stroke-miterlimit="10" fill="url(#fill3)" fill-rule="evenodd"/><text fill="#000000" fill-opacity="0" font-family="Arial,Arial_MSFontService,sans-serif" font-size="500.149" direction="ltr" writing-mode="lr-tb" x="3611.33" y="2149.24">N</text><path d="M3410.09 1769 3439.92 1793.64C3485.07 1838.84 3513 1901.28 3513 1970.25 3513 2108.18 3401.3 2220 3263.5 2220 3125.71 2220 3014 2108.18 3014 1970.25 3014 1901.28 3041.93 1838.84 3087.08 1793.64L3116.91 1769 3174.01 1852.87 3158.8 1865.43C3132 1892.26 3115.43 1929.31 3115.43 1970.25 3115.43 2052.11 3181.72 2118.47 3263.5 2118.47 3345.28 2118.47 3411.57 2052.11 3411.57 1970.25 3411.57 1929.31 3395 1892.26 3368.2 1865.43L3352.99 1852.87Z" fill="url(#fill4)" fill-rule="evenodd"/><path d="M3407 1711 3263.5 1922 3120 1711Z" fill="url(#fill5)" fill-rule="evenodd"/></g></g></svg>