<svg width="3163" height="963" xmlns="http://www.w3.org/2000/svg" xmlns:xlink="http://www.w3.org/1999/xlink" xml:space="preserve" overflow="hidden"><defs><linearGradient x1="1370.1" y1="1509.75" x2="1370.1" y2="2422.75" gradientUnits="userSpaceOnUse" spreadMethod="reflect" id="stroke0"><stop offset="0" stop-color="#FF8C00" stop-opacity="1"/><stop offset="0.51" stop-color="#FF0000" stop-opacity="1"/><stop offset="1" stop-color="#D273FE" stop-opacity="1"/></linearGradient><linearGradient x1="1370.1" y1="1509.75" x2="1370.1" y2="2422.75" gradientUnits="userSpaceOnUse" spreadMethod="reflect" id="fill1"><stop offset="0" stop-color="#FF9300" stop-opacity="1"/><stop offset="0.52" stop-color="#FF0000" stop-opacity="0.701961"/><stop offset="0.99" stop-color="#FF40FF" stop-opacity="1"/><stop offset="1" stop-color="#FF40FF" stop-opacity="1"/></linearGradient><linearGradient x1="2839.5" y1="1769" x2="2839.5" y2="2220" gradientUnits="userSpaceOnUse" spreadMethod="reflect" id="fill2"><stop offset="0" stop-color="#FF9300" stop-opacity="1"/><stop offset="0.52" stop-color="#FF0000" stop-opacity="1"/><stop offset="1" stop-color="#FF40FF" stop-opacity="1"/></linearGradient><linearGradient x1="2839.5" y1="1922" x2="2839.5" y2="1711" gradientUnits="userSpaceOnUse" spreadMethod="reflect" id="fill3"><stop offset="0" stop-color="#FF0000" stop-opacity="1"/><stop offset="0.00684932" stop-color="#FF0100" stop-opacity="1"/><stop offset="0.0136986" stop-color="#FF0300" stop-opacity="1"/><stop offset="0.0205479" stop-color="#FF0500" stop-opacity="1"/><stop offset="0.0273973" stop-color="#FF0700" stop-opacity="1"/><stop offset="0.0342466" stop-color="#FF0900" stop-opacity="1"/><stop offset="0.0410959" stop-color="#FF0B00" stop-opacity="1"/><stop offset="0.0479452" stop-color="#FF0C00" stop-opacity="1"/><stop offset="0.0547945" stop-color="#FF0E00" stop-opacity="1"/><stop offset="0.0616438" stop-color="#FF1000" stop-opacity="1"/><stop offset="0.0684932" stop-color="#FF1200" stop-opacity="1"/><stop offset="0.0753425" stop-color="#FF1400" stop-opacity="1"/><stop offset="0.0821918" stop-color="#FF1500" stop-opacity="1"/><stop offset="0.0890411" stop-color="#FF1700" stop-opacity="1"/><stop offset="0.0958904" stop-color="#FF1900" stop-opacity="1"/><stop offset="0.10274" stop-color="#FF1B00" stop-opacity="1"/><stop offset="0.109589" stop-color="#FF1C00" stop-opacity="1"/><stop offset="0.116438" stop-color="#FF1E00" stop-opacity="1"/><stop offset="0.123288" stop-color="#FF2000" stop-opacity="1"/><stop offset="0.130137" stop-color="#FF2100" stop-opacity="1"/><stop offset="0.136986" stop-color="#FF2300" stop-opacity="1"/><stop offset="0.143836" stop-color="#FF2500" stop-opacity="1"/><stop offset="0.150685" stop-color="#FF2600" stop-opacity="1"/><stop offset="0.157534" stop-color="#FF2800" stop-opacity="1"/><stop offset="0.164384" stop-color="#FF2A00" stop-opacity="1"/><stop offset="0.171233" stop-color="#FF2B00" stop-opacity="1"/><stop offset="0.178082" stop-color="#FF2D00" stop-opacity="1"/><stop offset="0.184932" stop-color="#FF2E00" stop-opacity="1"/><stop offset="0.191781" stop-color="#FF3000" stop-opacity="1"/><stop offset="0.19863" stop-color="#FF3100" stop-opacity="1"/><stop offset="0.205479" stop-color="#FF3300" stop-opacity="1"/><stop offset="0.212329" stop-color="#FF3500" stop-opacity="1"/><stop offset="0.219178" stop-color="#FF3600" stop-opacity="1"/><stop offset="0.226027" stop-color="#FF3800" stop-opacity="1"/><stop offset="0.232877" stop-color="#FF3900" stop-opacity="1"/><stop offset="0.239726" stop-color="#FF3B00" stop-opacity="1"/><stop offset="0.246575" stop-color="#FF3C00" stop-opacity="1"/><stop offset="0.253425" stop-color="#FF3E00" stop-opacity="1"/><stop offset="0.260274" stop-color="#FF3F00" stop-opacity="1"/><stop offset="0.267123" stop-color="#FF4000" stop-opacity="1"/><stop offset="0.273973" stop-color="#FF4200" stop-opacity="1"/><stop offset="0.280822" stop-color="#FF4300" stop-opacity="1"/><stop offset="0.287671" stop-color="#FF4500" stop-opacity="1"/><stop offset="0.294521" stop-color="#FF4600" stop-opacity="1"/><stop offset="0.30137" stop-color="#FF4700" stop-opacity="1"/><stop offset="0.308219" stop-color="#FF4900" stop-opacity="1"/><stop offset="0.315068" stop-color="#FF4A00" stop-opacity="1"/><stop offset="0.321918" stop-color="#FF4C00" stop-opacity="1"/><stop offset="0.328767" stop-color="#FF4D00" stop-opacity="1"/><stop offset="0.335616" stop-color="#FF4E00" stop-opacity="1"/><stop offset="0.342466" stop-color="#FF5000" stop-opacity="1"/><stop offset="0.349315" stop-color="#FF5100" stop-opacity="1"/><stop offset="0.356164" stop-color="#FF5200" stop-opacity="1"/><stop offset="0.363014" stop-color="#FF5300" stop-opacity="1"/><stop offset="0.369863" stop-color="#FF5500" stop-opacity="1"/><stop offset="0.376712" stop-color="#FF5600" stop-opacity="1"/><stop offset="0.383562" stop-color="#FF5700" stop-opacity="1"/><stop offset="0.390411" stop-color="#FF5800" stop-opacity="1"/><stop offset="0.39726" stop-color="#FF5A00" stop-opacity="1"/><stop offset="0.40411" stop-color="#FF5B00" stop-opacity="1"/><stop offset="0.410959" stop-color="#FF5C00" stop-opacity="1"/><stop offset="0.417808" stop-color="#FF5D00" stop-opacity="1"/><stop offset="0.424658" stop-color="#FF5E00" stop-opacity="1"/><stop offset="0.431507" stop-color="#FF6000" stop-opacity="1"/><stop offset="0.438356" stop-color="#FF6100" stop-opacity="1"/><stop offset="0.445205" stop-color="#FF6200" stop-opacity="1"/><stop offset="0.452055" stop-color="#FF6300" stop-opacity="1"/><stop offset="0.458904" stop-color="#FF6400" stop-opacity="1"/><stop offset="0.465753" stop-color="#FF6500" stop-opacity="1"/><stop offset="0.472603" stop-color="#FF6600" stop-opacity="1"/><stop offset="0.479452" stop-color="#FF6700" stop-opacity="1"/><stop offset="0.486301" stop-color="#FF6800" stop-opacity="1"/><stop offset="0.493151" stop-color="#FF6900" stop-opacity="1"/><stop offset="0.5" stop-color="#FF6A00" stop-opacity="1"/><stop offset="0.506849" stop-color="#FF6B00" stop-opacity="1"/><stop offset="0.513699" stop-color="#FF6C00" stop-opacity="1"/><stop offset="0.520548" stop-color="#FF6D00" stop-opacity="1"/><stop offset="0.527397" stop-color="#FF6E00" stop-opacity="1"/><stop offset="0.534247" stop-color="#FF6F00" stop-opacity="1"/><stop offset="0.541096" stop-color="#FF7000" stop-opacity="1"/><stop offset="0.547945" stop-color="#FF7100" stop-opacity="1"/><stop offset="0.554795" stop-color="#FF7200" stop-opacity="1"/><stop offset="0.561644" stop-color="#FF7300" stop-opacity="1"/><stop offset="0.568493" stop-color="#FF7400" stop-opacity="1"/><stop offset="0.575342" stop-color="#FF7500" stop-opacity="1"/><stop offset="0.582192" stop-color="#FF7600" stop-opacity="1"/><stop offset="0.589041" stop-color="#FF7700" stop-opacity="1"/><stop offset="0.59589" stop-color="#FF7800" stop-opacity="1"/><stop offset="0.60274" stop-color="#FF7800" stop-opacity="1"/><stop offset="0.609589" stop-color="#FF7900" stop-opacity="1"/><stop offset="0.616438" stop-color="#FF7A00" stop-opacity="1"/><stop offset="0.623288" stop-color="#FF7B00" stop-opacity="1"/><stop offset="0.630137" stop-color="#FF7C00" stop-opacity="1"/><stop offset="0.636986" stop-color="#FF7D00" stop-opacity="1"/><stop offset="0.643836" stop-color="#FF7D00" stop-opacity="1"/><stop offset="0.650685" stop-color="#FF7E00" stop-opacity="1"/><stop offset="0.657534" stop-color="#FF7F00" stop-opacity="1"/><stop offset="0.664384" stop-color="#FF8000" stop-opacity="1"/><stop offset="0.671233" stop-color="#FF8000" stop-opacity="1"/><stop offset="0.678082" stop-color="#FF8100" stop-opacity="1"/><stop offset="0.684932" stop-color="#FF8200" stop-opacity="1"/><stop offset="0.691781" stop-color="#FF8200" stop-opacity="1"/><stop offset="0.69863" stop-color="#FF8300" stop-opacity="1"/><stop offset="0.705479" stop-color="#FF8400" stop-opacity="1"/><stop offset="0.712329" stop-color="#FF8400" stop-opacity="1"/><stop offset="0.719178" stop-color="#FF8500" stop-opacity="1"/><stop offset="0.726027" stop-color="#FF8600" stop-opacity="1"/><stop offset="0.732877" stop-color="#FF8600" stop-opacity="1"/><stop offset="0.739726" stop-color="#FF8700" stop-opacity="1"/><stop offset="0.746575" stop-color="#FF8700" stop-opacity="1"/><stop offset="0.753425" stop-color="#FF8800" stop-opacity="1"/><stop offset="0.760274" stop-color="#FF8800" stop-opacity="1"/><stop offset="0.767123" stop-color="#FF8900" stop-opacity="1"/><stop offset="0.773973" stop-color="#FF8900" stop-opacity="1"/><stop offset="0.780822" stop-color="#FF8A00" stop-opacity="1"/><stop offset="0.787671" stop-color="#FF8A00" stop-opacity="1"/><stop offset="0.794521" stop-color="#FF8B00" stop-opacity="1"/><stop offset="0.80137" stop-color="#FF8B00" stop-opacity="1"/><stop offset="0.808219" stop-color="#FF8C00" stop-opacity="1"/><stop offset="0.815068" stop-color="#FF8C00" stop-opacity="1"/><stop offset="0.821918" stop-color="#FF8D00" stop-opacity="1"/><stop offset="0.828767" stop-color="#FF8D00" stop-opacity="1"/><stop offset="0.835616" stop-color="#FF8E00" stop-opacity="1"/><stop offset="0.842466" stop-color="#FF8E00" stop-opacity="1"/><stop offset="0.849315" stop-color="#FF8E00" stop-opacity="1"/><stop offset="0.856164" stop-color="#FF8F00" stop-opacity="1"/><stop offset="0.863014" stop-color="#FF8F00" stop-opacity="1"/><stop offset="0.869863" stop-color="#FF8F00" stop-opacity="1"/><stop offset="0.876712" stop-color="#FF9000" stop-opacity="1"/><stop offset="0.883562" stop-color="#FF9000" stop-opacity="1"/><stop offset="0.890411" stop-color="#FF9000" stop-opacity="1"/><stop offset="0.89726" stop-color="#FF9000" stop-opacity="1"/><stop offset="0.90411" stop-color="#FF9100" stop-opacity="1"/><stop offset="0.910959" stop-color="#FF9100" stop-opacity="1"/><stop offset="0.917808" stop-color="#FF9100" stop-opacity="1"/><stop offset="0.924658" stop-color="#FF9100" stop-opacity="1"/><stop offset="0.931507" stop-color="#FF9200" stop-opacity="1"/><stop offset="0.938356" stop-color="#FF9200" stop-opacity="1"/><stop offset="0.945205" stop-color="#FF9200" stop-opacity="1"/><stop offset="0.952055" stop-color="#FF9200" stop-opacity="1"/><stop offset="0.958904" stop-color="#FF9200" stop-opacity="1"/><stop offset="0.965753" stop-color="#FF9200" stop-opacity="1"/><stop offset="0.972603" stop-color="#FF9200" stop-opacity="1"/><stop offset="0.979452" stop-color="#FF9200" stop-opacity="1"/><stop offset="0.986301" stop-color="#FF9200" stop-opacity="1"/><stop offset="0.993151" stop-color="#FF9200" stop-opacity="1"/><stop offset="1" stop-color="#FF9300" stop-opacity="1"/></linearGradient></defs><g transform="translate(-132 -1489)"><g><path d="M2252.49 1798.19 2252.49 1934.18 2336.47 1934.18C2352.82 1934.18 2366.87 1931.58 2378.64 1926.38 2390.41 1921.18 2399.51 1913.38 2405.95 1902.97 2412.39 1892.57 2415.61 1879.81 2415.61 1864.7 2415.61 1842.65 2408.92 1826.05 2395.55 1814.91 2382.17 1803.76 2364.46 1798.19 2342.41 1798.19ZM1791.86 1795.96 1791.86 1949.79 1873.98 1949.79C1898.26 1949.79 1917.89 1943.35 1932.88 1930.47 1947.87 1917.59 1955.36 1898.51 1955.36 1873.25 1955.36 1846.99 1947.68 1827.54 1932.32 1814.91 1916.96 1802.27 1897.52 1795.96 1873.98 1795.96ZM2148.07 1711.61 2353.93 1711.61C2386.13 1711.61 2414.87 1716.13 2440.14 1725.17 2465.41 1734.21 2485.41 1748.83 2500.15 1769.02 2514.89 1789.21 2522.26 1816.02 2522.26 1849.46 2522.26 1881.17 2513.77 1908.05 2496.8 1930.1 2479.83 1952.14 2454.13 1967.87 2419.7 1977.29 2440.76 1980.51 2457.6 1986.89 2470.24 1996.42 2482.87 2005.96 2493.09 2018.78 2500.89 2034.88 2508.69 2050.99 2515.82 2070.8 2522.26 2094.34L2555.33 2211.76 2446.08 2211.76 2422.67 2115.15C2417.72 2093.35 2412.02 2075.51 2405.58 2061.64 2399.14 2047.77 2390.41 2037.42 2379.38 2030.61 2368.36 2023.8 2353.19 2020.39 2333.86 2020.39L2252.49 2020.39 2252.49 2211.76 2148.07 2211.76ZM1687.45 1711.61 1883.64 1711.61C1916.59 1711.61 1946.63 1717.43 1973.75 1729.07 2000.88 1740.71 2022.49 1758.43 2038.59 1782.21 2054.7 1805.99 2062.75 1836.33 2062.75 1873.25 2062.75 1909.66 2054.7 1939.76 2038.59 1963.54 2022.49 1987.32 2000.88 2004.97 1973.75 2016.49 1946.63 2028.01 1916.59 2033.77 1883.64 2033.77L1791.86 2033.77 1791.86 2211.76 1687.45 2211.76ZM1464.01 1711.61 1568.43 1711.61 1568.43 2211.76 1464.01 2211.76ZM914.012 1711.61 1016.2 1711.61 1246.21 2048.63 1246.21 1711.61 1344.68 1711.61 1344.68 2211.76 1242.12 2211.76 1011.74 1872.5 1011.74 2211.76 914.012 2211.76ZM378.118 1711.61 485.134 1711.61 485.134 2010.36C485.134 2051.48 493.557 2082.07 510.402 2102.14 527.247 2122.21 553.753 2132.24 589.92 2132.24 626.335 2132.24 652.656 2122.21 668.881 2102.14 685.107 2082.07 693.22 2051.48 693.22 2010.36L693.22 1711.61 800.607 1711.61 800.607 2012.96C800.607 2057.05 793.299 2094.46 778.684 2125.18 764.068 2155.9 741.216 2179.12 710.127 2194.85 679.038 2210.58 638.721 2218.45 589.177 2218.45 540.128 2218.45 499.997 2210.58 468.785 2194.85 437.572 2179.12 414.657 2155.9 400.042 2125.18 385.426 2094.46 378.118 2057.05 378.118 2012.96Z" stroke="url(#stroke0)" stroke-width="9" stroke-linecap="butt" stroke-linejoin="round" stroke-miterlimit="10" fill="url(#fill1)" fill-rule="evenodd"/><text fill="#000000" fill-opacity="0" font-family="Arial,Arial_MSFontService,sans-serif" font-size="506.838" direction="ltr" writing-mode="lr-tb" x="378.118" y="2155.09">UNIPR    </text><path d="M2986.09 1769 3015.92 1793.64C3061.07 1838.84 3089 1901.28 3089 1970.25 3089 2108.18 2977.3 2220 2839.5 2220 2701.71 2220 2590 2108.18 2590 1970.25 2590 1901.28 2617.93 1838.84 2663.08 1793.64L2692.91 1769 2750.01 1852.87 2734.8 1865.43C2708 1892.26 2691.43 1929.31 2691.43 1970.25 2691.43 2052.11 2757.72 2118.47 2839.5 2118.47 2921.28 2118.47 2987.57 2052.11 2987.57 1970.25 2987.57 1929.31 2971 1892.26 2944.2 1865.43L2928.99 1852.87Z" fill="url(#fill2)" fill-rule="evenodd"/><path d="M2983 1711 2839.5 1922 2696 1711Z" fill="url(#fill3)" fill-rule="evenodd"/></g></g></svg>